<svg width="150" height="150" viewBox="0 0 80 80" fill="none" xmlns="http://www.w3.org/2000/svg">
<rect width="80" height="80" fill="#6562F5"/>
<path d="M9.23929 56L19.8636 22.5H30.44L41.0164 56H34.1729L25.2714 26.2807H25.08L15.9871 56H9.23929ZM14.6471 46.3807L16.3221 41.3557H33.4071L35.0821 46.3807H14.6471ZM49.9799 56.5743C48.0975 56.5743 46.5342 56.2552 45.2899 55.6171C44.0775 54.979 43.1842 54.1176 42.6099 53.0329C42.0356 51.9481 41.7485 50.7517 41.7485 49.4436C41.7485 47.976 42.1154 46.6838 42.8492 45.5671C43.6149 44.4505 44.7635 43.589 46.2949 42.9829C47.8264 42.3448 49.7566 42.0257 52.0856 42.0257H58.0678C58.0678 40.8452 57.8923 39.8721 57.5414 39.1064C57.2223 38.3407 56.7118 37.7664 56.0099 37.3836C55.3399 37.0007 54.4785 36.8093 53.4256 36.8093C52.1814 36.8093 51.1125 37.0964 50.2192 37.6707C49.3578 38.2131 48.8154 39.0745 48.5921 40.255H42.3228C42.5142 38.5002 43.0885 36.9848 44.0456 35.7086C45.0347 34.4324 46.3268 33.4433 47.9221 32.7414C49.5492 32.0395 51.3837 31.6886 53.4256 31.6886C55.7228 31.6886 57.7009 32.0714 59.3599 32.8371C61.019 33.571 62.2952 34.6717 63.1885 36.1393C64.0818 37.575 64.5285 39.3298 64.5285 41.4036V56H59.1685L58.4985 52.315H58.3071C57.7966 53.0169 57.2383 53.639 56.6321 54.1814C56.0578 54.7238 55.4197 55.1705 54.7178 55.5214C54.0159 55.8724 53.2661 56.1276 52.4685 56.2871C51.6709 56.4786 50.8414 56.5743 49.9799 56.5743ZM52.0856 51.5971C52.979 51.5971 53.7447 51.4536 54.3828 51.1664C55.0528 50.8474 55.6271 50.4326 56.1056 49.9221C56.5842 49.4117 56.9511 48.8214 57.2064 48.1514C57.4935 47.4495 57.6849 46.7317 57.7806 45.9979H52.8035C51.8144 45.9979 51.0009 46.1255 50.3628 46.3807C49.7566 46.604 49.3099 46.939 49.0228 47.3857C48.7356 47.8005 48.5921 48.295 48.5921 48.8693C48.5921 49.4436 48.7356 49.9381 49.0228 50.3529C49.3099 50.7676 49.7247 51.0867 50.2671 51.31C50.8094 51.5014 51.4156 51.5971 52.0856 51.5971Z" fill="white"/>
</svg>