<svg width="400" height="600" viewBox="0 0 518 604" fill="none" xmlns="http://www.w3.org/2000/svg">
<g clip-path="url(#clip0_111_136)">
<rect width="518" height="604" fill="#333333"/>
<line y1="539.126" x2="1073.78" y2="539.126" stroke="#2463EB" stroke-width="2.23704"/>
<path d="M56.7762 577.935C55.6017 577.935 54.5895 577.683 53.7394 577.18C52.8893 576.665 52.235 575.955 51.7764 575.049C51.3178 574.132 51.0885 573.075 51.0885 571.878C51.0885 570.681 51.3178 569.624 51.7764 568.707C52.235 567.79 52.8893 567.074 53.7394 566.559C54.5895 566.045 55.6017 565.788 56.7762 565.788C58.1967 565.788 59.3599 566.14 60.2659 566.845C61.1719 567.549 61.7368 568.545 61.9605 569.831H59.4774C59.332 569.205 59.03 568.718 58.5714 568.371C58.1128 568.013 57.5088 567.835 56.7594 567.835C56.0547 567.835 55.4507 568.002 54.9474 568.338C54.4441 568.662 54.0582 569.126 53.7897 569.73C53.5325 570.323 53.4038 571.039 53.4038 571.878C53.4038 572.706 53.5325 573.422 53.7897 574.026C54.0582 574.63 54.4441 575.094 54.9474 575.418C55.4507 575.742 56.0547 575.905 56.7594 575.905C57.5088 575.905 58.1128 575.742 58.5714 575.418C59.03 575.083 59.332 574.618 59.4774 574.026H61.9605C61.7368 575.245 61.1719 576.201 60.2659 576.895C59.3599 577.588 58.1967 577.935 56.7762 577.935ZM67.8207 577.935C67.0153 577.935 66.2883 577.75 65.6395 577.381C65.002 577.001 64.4931 576.481 64.1128 575.821C63.7437 575.15 63.5591 574.389 63.5591 573.539C63.5591 572.667 63.7437 571.9 64.1128 571.24C64.4931 570.569 65.0076 570.049 65.6563 569.68C66.3051 569.311 67.0321 569.126 67.8374 569.126C68.654 569.126 69.381 569.311 70.0186 569.68C70.6673 570.049 71.1762 570.564 71.5453 571.224C71.9256 571.884 72.1158 572.655 72.1158 573.539C72.1158 574.4 71.9256 575.161 71.5453 575.821C71.1762 576.481 70.6673 577.001 70.0186 577.381C69.3698 577.75 68.6372 577.935 67.8207 577.935ZM67.8207 575.972C68.1898 575.972 68.5197 575.882 68.8105 575.703C69.1125 575.524 69.353 575.25 69.532 574.881C69.711 574.512 69.8004 574.059 69.8004 573.522C69.8004 572.985 69.711 572.538 69.532 572.18C69.3642 571.811 69.1293 571.537 68.8273 571.358C68.5365 571.168 68.2065 571.073 67.8374 571.073C67.4795 571.073 67.1495 571.168 66.8475 571.358C66.5455 571.537 66.3051 571.811 66.1261 572.18C65.9471 572.538 65.8577 572.985 65.8577 573.522C65.8577 574.059 65.9471 574.512 66.1261 574.881C66.3051 575.25 66.54 575.524 66.8308 575.703C67.1328 575.882 67.4627 575.972 67.8207 575.972ZM74.0679 577.733V569.328H76.0477L76.2322 570.435C76.5007 570.032 76.8586 569.714 77.306 569.479C77.7534 569.244 78.2623 569.126 78.8328 569.126C79.2578 569.126 79.6381 569.182 79.9737 569.294C80.3204 569.395 80.6224 569.551 80.8797 569.764C81.1369 569.976 81.355 570.245 81.534 570.569C81.8472 570.122 82.2554 569.77 82.7588 569.512C83.2621 569.255 83.8102 569.126 84.403 569.126C85.1412 569.126 85.7564 569.272 86.2486 569.563C86.7519 569.853 87.1266 570.284 87.3727 570.855C87.6299 571.414 87.7586 572.102 87.7586 572.918V577.733H85.5103V573.12C85.5103 572.448 85.3761 571.934 85.1077 571.576C84.8392 571.207 84.431 571.022 83.8829 571.022C83.525 571.022 83.2062 571.112 82.9266 571.291C82.6469 571.47 82.4288 571.733 82.2722 572.079C82.1156 572.415 82.0373 572.818 82.0373 573.287V577.733H79.7891V573.12C79.7891 572.448 79.6549 571.934 79.3864 571.576C79.118 571.207 78.6986 571.022 78.1281 571.022C77.7814 571.022 77.4682 571.112 77.1886 571.291C76.9201 571.47 76.7076 571.733 76.551 572.079C76.4056 572.415 76.3329 572.818 76.3329 573.287V577.733H74.0679ZM89.8626 581.425V569.328H91.8759L92.1276 570.485C92.2954 570.239 92.5023 570.016 92.7484 569.814C92.9944 569.602 93.2909 569.434 93.6376 569.311C93.9843 569.188 94.387 569.126 94.8456 569.126C95.6397 569.126 96.3388 569.317 96.9428 569.697C97.5468 570.077 98.0222 570.603 98.3689 571.274C98.7269 571.934 98.9058 572.689 98.9058 573.539C98.9058 574.389 98.7269 575.144 98.3689 575.804C98.011 576.464 97.53 576.984 96.926 577.364C96.322 577.745 95.6342 577.935 94.8624 577.935C94.236 577.935 93.6935 577.823 93.2349 577.599C92.7763 577.364 92.4072 577.046 92.1276 576.643V581.425H89.8626ZM94.3255 575.955C94.7729 575.955 95.1644 575.854 95.4999 575.653C95.8467 575.452 96.1151 575.166 96.3053 574.797C96.5066 574.428 96.6073 574.009 96.6073 573.539C96.6073 573.058 96.5066 572.633 96.3053 572.264C96.1151 571.895 95.8467 571.61 95.4999 571.408C95.1644 571.196 94.7729 571.089 94.3255 571.089C93.8893 571.089 93.4978 571.196 93.151 571.408C92.8043 571.61 92.5359 571.895 92.3457 572.264C92.1556 572.633 92.0605 573.052 92.0605 573.522C92.0605 574.003 92.1556 574.428 92.3457 574.797C92.5359 575.166 92.8043 575.452 93.151 575.653C93.4978 575.854 93.8893 575.955 94.3255 575.955ZM103.709 577.935C103.004 577.935 102.423 577.823 101.964 577.599C101.505 577.364 101.164 577.057 100.941 576.676C100.717 576.285 100.605 575.86 100.605 575.401C100.605 574.887 100.734 574.434 100.991 574.042C101.259 573.651 101.662 573.343 102.199 573.12C102.736 572.896 103.407 572.784 104.212 572.784H106.309C106.309 572.37 106.253 572.029 106.142 571.761C106.03 571.492 105.856 571.291 105.622 571.157C105.387 571.022 105.073 570.955 104.682 570.955C104.257 570.955 103.893 571.05 103.591 571.24C103.289 571.431 103.105 571.716 103.038 572.096H100.84C100.896 571.481 101.092 570.955 101.427 570.519C101.774 570.072 102.227 569.73 102.786 569.496C103.357 569.249 103.994 569.126 104.699 569.126C105.493 569.126 106.181 569.261 106.762 569.529C107.344 569.786 107.791 570.167 108.105 570.67C108.418 571.173 108.574 571.794 108.574 572.532V577.733H106.662L106.41 576.442C106.287 576.665 106.142 576.867 105.974 577.046C105.806 577.224 105.61 577.381 105.387 577.515C105.163 577.65 104.911 577.75 104.632 577.817C104.352 577.896 104.044 577.935 103.709 577.935ZM104.246 576.19C104.537 576.19 104.794 576.14 105.018 576.039C105.252 575.927 105.454 575.782 105.622 575.603C105.789 575.412 105.918 575.2 106.007 574.965C106.108 574.719 106.175 574.462 106.209 574.193V574.177H104.481C104.134 574.177 103.849 574.221 103.625 574.311C103.412 574.389 103.256 574.506 103.155 574.663C103.055 574.82 103.004 574.999 103.004 575.2C103.004 575.412 103.055 575.591 103.155 575.737C103.256 575.882 103.401 575.994 103.591 576.072C103.782 576.151 104 576.19 104.246 576.19ZM110.671 577.733V569.328H112.651L112.835 570.704C113.093 570.223 113.456 569.842 113.926 569.563C114.407 569.272 114.983 569.126 115.654 569.126C116.347 569.126 116.935 569.272 117.416 569.563C117.897 569.853 118.26 570.278 118.506 570.838C118.763 571.397 118.892 572.09 118.892 572.918V577.733H116.644V573.12C116.644 572.448 116.498 571.934 116.208 571.576C115.928 571.207 115.492 571.022 114.899 571.022C114.519 571.022 114.178 571.112 113.876 571.291C113.585 571.47 113.355 571.727 113.188 572.063C113.02 572.398 112.936 572.806 112.936 573.287V577.733H110.671ZM121.772 581.425L123.835 576.794H123.332L119.943 569.328H122.392L124.825 574.73L127.006 569.328H129.422L124.171 581.425H121.772ZM143.715 577.733L137.322 571.375C136.797 570.86 136.428 570.396 136.215 569.982C136.003 569.557 135.896 569.11 135.896 568.64C135.896 568.103 136.031 567.622 136.299 567.197C136.579 566.761 136.97 566.42 137.473 566.174C137.988 565.916 138.609 565.788 139.336 565.788C140.063 565.788 140.672 565.922 141.165 566.19C141.668 566.459 142.048 566.811 142.305 567.247C142.563 567.684 142.686 568.17 142.675 568.707H140.51C140.521 568.315 140.404 568.019 140.158 567.818C139.923 567.616 139.643 567.516 139.319 567.516C138.939 567.516 138.631 567.622 138.396 567.835C138.173 568.036 138.061 568.299 138.061 568.623C138.061 568.892 138.145 569.171 138.312 569.462C138.491 569.753 138.749 570.077 139.084 570.435L146.416 577.733H143.715ZM138.581 577.918C137.731 577.918 136.987 577.773 136.349 577.482C135.712 577.18 135.214 576.76 134.856 576.223C134.509 575.687 134.336 575.055 134.336 574.328C134.336 573.768 134.453 573.248 134.688 572.767C134.923 572.275 135.276 571.844 135.745 571.475C136.215 571.095 136.802 570.793 137.507 570.569L138.363 570.284L139.369 571.693L138.581 571.945C137.887 572.169 137.373 572.476 137.037 572.868C136.713 573.248 136.551 573.69 136.551 574.193C136.551 574.54 136.635 574.859 136.802 575.15C136.981 575.429 137.233 575.653 137.557 575.821C137.882 575.989 138.262 576.072 138.698 576.072C139.313 576.072 139.862 575.938 140.342 575.67C140.823 575.401 141.288 574.971 141.735 574.378C141.936 574.109 142.138 573.807 142.339 573.472C142.54 573.136 142.742 572.762 142.943 572.348L143.295 571.626H145.594L145.04 572.767C144.749 573.36 144.459 573.897 144.168 574.378C143.877 574.859 143.575 575.289 143.262 575.67C142.624 576.453 141.925 577.023 141.165 577.381C140.404 577.739 139.543 577.918 138.581 577.918ZM157.164 577.935C155.99 577.935 154.978 577.683 154.128 577.18C153.277 576.665 152.623 575.955 152.165 575.049C151.706 574.132 151.477 573.075 151.477 571.878C151.477 570.681 151.706 569.624 152.165 568.707C152.623 567.79 153.277 567.074 154.128 566.559C154.978 566.045 155.99 565.788 157.164 565.788C158.585 565.788 159.748 566.14 160.654 566.845C161.56 567.549 162.125 568.545 162.349 569.831H159.866C159.72 569.205 159.418 568.718 158.96 568.371C158.501 568.013 157.897 567.835 157.148 567.835C156.443 567.835 155.839 568.002 155.336 568.338C154.832 568.662 154.446 569.126 154.178 569.73C153.921 570.323 153.792 571.039 153.792 571.878C153.792 572.706 153.921 573.422 154.178 574.026C154.446 574.63 154.832 575.094 155.336 575.418C155.839 575.742 156.443 575.905 157.148 575.905C157.897 575.905 158.501 575.742 158.96 575.418C159.418 575.083 159.72 574.618 159.866 574.026H162.349C162.125 575.245 161.56 576.201 160.654 576.895C159.748 577.588 158.585 577.935 157.164 577.935ZM168.209 577.935C167.403 577.935 166.676 577.75 166.028 577.381C165.39 577.001 164.881 576.481 164.501 575.821C164.132 575.15 163.947 574.389 163.947 573.539C163.947 572.667 164.132 571.9 164.501 571.24C164.881 570.569 165.396 570.049 166.044 569.68C166.693 569.311 167.42 569.126 168.226 569.126C169.042 569.126 169.769 569.311 170.407 569.68C171.055 570.049 171.564 570.564 171.933 571.224C172.314 571.884 172.504 572.655 172.504 573.539C172.504 574.4 172.314 575.161 171.933 575.821C171.564 576.481 171.055 577.001 170.407 577.381C169.758 577.75 169.025 577.935 168.209 577.935ZM168.209 575.972C168.578 575.972 168.908 575.882 169.199 575.703C169.501 575.524 169.741 575.25 169.92 574.881C170.099 574.512 170.189 574.059 170.189 573.522C170.189 572.985 170.099 572.538 169.92 572.18C169.752 571.811 169.517 571.537 169.215 571.358C168.925 571.168 168.595 571.073 168.226 571.073C167.868 571.073 167.538 571.168 167.236 571.358C166.934 571.537 166.693 571.811 166.514 572.18C166.335 572.538 166.246 572.985 166.246 573.522C166.246 574.059 166.335 574.512 166.514 574.881C166.693 575.25 166.928 575.524 167.219 575.703C167.521 575.882 167.851 575.972 168.209 575.972ZM175.463 577.817C175.049 577.817 174.708 577.694 174.439 577.448C174.182 577.191 174.053 576.878 174.053 576.509C174.053 576.14 174.182 575.832 174.439 575.586C174.708 575.329 175.049 575.2 175.463 575.2C175.877 575.2 176.212 575.329 176.469 575.586C176.727 575.832 176.855 576.14 176.855 576.509C176.855 576.878 176.727 577.191 176.469 577.448C176.212 577.694 175.877 577.817 175.463 577.817Z" fill="#E0DDD6"/>
<path d="M64.3989 442.348V422.215L44.6011 383.626H57.4361L70.0194 411.058H70.355L82.9383 383.626H95.5216L75.7239 422.215V442.348H64.3989ZM111.909 443.355C107.882 443.355 104.247 442.432 101.003 440.586C97.7596 438.741 95.187 436.168 93.2855 432.869C91.4399 429.569 90.5171 425.794 90.5171 421.544C90.5171 417.237 91.4679 413.462 93.3694 410.219C95.2709 406.919 97.8434 404.346 101.087 402.501C104.331 400.655 107.938 399.733 111.909 399.733C115.935 399.733 119.571 400.655 122.814 402.501C126.058 404.346 128.603 406.919 130.448 410.219C132.35 413.462 133.3 417.237 133.3 421.544C133.3 425.85 132.35 429.653 130.448 432.953C128.547 436.196 125.974 438.741 122.73 440.586C119.543 442.432 115.935 443.355 111.909 443.355ZM111.825 433.791C113.67 433.791 115.32 433.344 116.774 432.449C118.284 431.554 119.487 430.212 120.382 428.423C121.276 426.577 121.724 424.284 121.724 421.544C121.724 418.803 121.276 416.538 120.382 414.749C119.487 412.903 118.284 411.533 116.774 410.638C115.32 409.743 113.726 409.296 111.993 409.296C110.203 409.296 108.553 409.743 107.043 410.638C105.533 411.533 104.331 412.903 103.436 414.749C102.541 416.538 102.094 418.803 102.094 421.544C102.094 424.284 102.541 426.577 103.436 428.423C104.331 430.212 105.505 431.554 106.959 432.449C108.469 433.344 110.091 433.791 111.825 433.791ZM154.488 443.355C151.077 443.355 148.169 442.628 145.764 441.174C143.359 439.72 141.514 437.566 140.227 434.714C138.941 431.806 138.298 428.255 138.298 424.06V400.739H149.539V423.054C149.539 426.521 150.238 429.178 151.636 431.023C153.09 432.869 155.327 433.791 158.347 433.791C160.305 433.791 162.01 433.344 163.464 432.449C164.974 431.499 166.149 430.156 166.988 428.423C167.827 426.689 168.246 424.62 168.246 422.215V400.739H179.571V442.348H169.924L168.917 435.721H168.582C167.295 438.07 165.478 439.943 163.129 441.341C160.836 442.684 157.956 443.355 154.488 443.355ZM186.314 442.348V400.739H195.962L196.968 409.883H197.304C198.534 406.919 199.876 404.738 201.33 403.34C202.785 401.886 204.434 400.935 206.28 400.488C208.181 399.984 210.307 399.733 212.655 399.733V411.729H209.552C207.65 411.729 205.944 411.952 204.434 412.4C202.98 412.791 201.75 413.462 200.743 414.413C199.737 415.308 198.954 416.51 198.394 418.02C197.891 419.53 197.639 421.348 197.639 423.473V442.348H186.314ZM254.228 443.355C249.978 443.355 246.175 442.628 242.819 441.174C239.52 439.72 236.919 437.594 235.018 434.798C233.116 432.002 232.11 428.618 231.998 424.648H243.994C244.05 426.381 244.469 427.947 245.252 429.345C246.091 430.744 247.266 431.862 248.776 432.701C250.286 433.484 252.103 433.875 254.228 433.875C255.962 433.875 257.5 433.624 258.842 433.12C260.184 432.561 261.219 431.778 261.946 430.771C262.729 429.709 263.121 428.395 263.121 426.829C263.121 425.151 262.701 423.753 261.862 422.634C261.079 421.516 259.961 420.565 258.507 419.782C257.053 418.943 255.403 418.216 253.557 417.601C251.768 416.93 249.894 416.259 247.937 415.588C243.183 413.966 239.548 411.869 237.031 409.296C234.57 406.723 233.34 403.34 233.34 399.145C233.34 395.734 234.179 392.798 235.857 390.337C237.534 387.876 239.883 385.975 242.903 384.633C245.923 383.29 249.363 382.619 253.222 382.619C257.192 382.619 260.688 383.318 263.708 384.716C266.728 386.059 269.105 388.016 270.838 390.589C272.572 393.161 273.495 396.181 273.607 399.649H261.443C261.387 398.139 260.995 396.824 260.268 395.706C259.597 394.587 258.618 393.693 257.332 393.021C256.102 392.35 254.648 392.015 252.97 392.015C251.516 391.959 250.174 392.183 248.943 392.686C247.769 393.133 246.846 393.832 246.175 394.783C245.504 395.678 245.168 396.88 245.168 398.39C245.168 399.789 245.476 400.963 246.091 401.914C246.762 402.864 247.685 403.703 248.859 404.43C250.09 405.101 251.516 405.773 253.138 406.444C254.816 407.059 256.689 407.73 258.758 408.457C261.722 409.464 264.435 410.666 266.896 412.064C269.356 413.406 271.314 415.168 272.768 417.349C274.278 419.53 275.033 422.355 275.033 425.822C275.033 428.954 274.222 431.862 272.6 434.546C271.034 437.175 268.713 439.3 265.637 440.922C262.561 442.544 258.758 443.355 254.228 443.355ZM280.945 442.348V383.626H292.27V442.348H280.945ZM300.71 442.348V400.739H312.035V442.348H300.71ZM306.414 395.454C304.345 395.454 302.639 394.867 301.297 393.693C300.011 392.462 299.368 390.924 299.368 389.079C299.368 387.233 300.011 385.695 301.297 384.465C302.639 383.234 304.345 382.619 306.414 382.619C308.484 382.619 310.161 383.234 311.448 384.465C312.734 385.695 313.377 387.233 313.377 389.079C313.377 390.868 312.734 392.378 311.448 393.609C310.161 394.839 308.484 395.454 306.414 395.454ZM338.298 443.355C334.383 443.355 330.972 442.432 328.064 440.586C325.155 438.685 322.89 436.084 321.269 432.785C319.647 429.485 318.836 425.738 318.836 421.544C318.836 417.349 319.647 413.602 321.269 410.303C322.89 407.003 325.183 404.43 328.148 402.585C331.112 400.683 334.635 399.733 338.718 399.733C341.961 399.733 344.758 400.376 347.106 401.662C349.511 402.892 351.413 404.374 352.811 406.108V383.626H364.136V442.348H354.573L353.985 435.05H353.65C352.587 436.784 351.301 438.266 349.791 439.496C348.281 440.726 346.575 441.677 344.674 442.348C342.772 443.019 340.647 443.355 338.298 443.355ZM341.654 434.043C343.947 434.043 345.932 433.512 347.61 432.449C349.343 431.387 350.658 429.933 351.553 428.087C352.503 426.186 352.979 423.976 352.979 421.46C352.979 418.999 352.503 416.846 351.553 415C350.658 413.099 349.343 411.617 347.61 410.554C345.876 409.492 343.863 408.96 341.57 408.96C339.333 408.96 337.347 409.492 335.614 410.554C333.936 411.617 332.622 413.099 331.671 415C330.776 416.846 330.329 418.999 330.329 421.46C330.329 423.976 330.776 426.186 331.671 428.087C332.622 429.933 333.936 431.387 335.614 432.449C337.347 433.512 339.361 434.043 341.654 434.043ZM391.765 443.355C387.514 443.355 383.739 442.46 380.44 440.67C377.196 438.881 374.651 436.364 372.806 433.12C370.96 429.877 370.038 426.158 370.038 421.963C370.038 417.601 370.932 413.77 372.722 410.47C374.568 407.115 377.112 404.486 380.356 402.585C383.656 400.683 387.458 399.733 391.765 399.733C395.959 399.733 399.622 400.627 402.754 402.417C405.886 404.207 408.347 406.667 410.136 409.799C411.926 412.875 412.821 416.371 412.821 420.285C412.821 420.845 412.793 421.488 412.737 422.215C412.737 422.886 412.709 423.585 412.653 424.312H378.091V417.349H401.328C401.16 414.721 400.182 412.624 398.392 411.058C396.658 409.492 394.477 408.709 391.849 408.709C389.891 408.709 388.102 409.156 386.48 410.051C384.858 410.89 383.572 412.204 382.621 413.994C381.67 415.727 381.195 417.936 381.195 420.621V423.054C381.195 425.347 381.642 427.332 382.537 429.01C383.432 430.632 384.662 431.89 386.228 432.785C387.85 433.68 389.668 434.127 391.681 434.127C393.75 434.127 395.484 433.68 396.882 432.785C398.28 431.834 399.343 430.632 400.07 429.178H411.563C410.78 431.806 409.465 434.211 407.62 436.392C405.774 438.517 403.509 440.223 400.825 441.509C398.14 442.74 395.12 443.355 391.765 443.355ZM61.7983 526.348V476.77H44.6011V467.626H90.2366V476.77H73.0394V526.348H61.7983ZM95.3296 526.348V484.739H106.655V526.348H95.3296ZM101.034 479.454C98.9648 479.454 97.2591 478.867 95.9168 477.693C94.6305 476.462 93.9874 474.924 93.9874 473.079C93.9874 471.233 94.6305 469.695 95.9168 468.465C97.2591 467.234 98.9648 466.619 101.034 466.619C103.103 466.619 104.781 467.234 106.067 468.465C107.354 469.695 107.997 471.233 107.997 473.079C107.997 474.868 107.354 476.378 106.067 477.609C104.781 478.839 103.103 479.454 101.034 479.454ZM133.673 526.348C130.709 526.348 128.108 525.901 125.871 525.006C123.69 524.055 121.984 522.517 120.754 520.392C119.523 518.211 118.908 515.247 118.908 511.5V493.799H111.778V484.739H118.908L120.167 473.414H130.233V484.739H141.307V493.799H130.233V511.668C130.233 513.681 130.653 515.079 131.492 515.862C132.331 516.589 133.757 516.953 135.77 516.953H141.055V526.348H133.673ZM145.527 526.348V467.626H156.852V526.348H145.527ZM184.418 527.355C180.168 527.355 176.393 526.46 173.093 524.67C169.85 522.881 167.305 520.364 165.459 517.12C163.614 513.877 162.691 510.158 162.691 505.963C162.691 501.601 163.586 497.77 165.376 494.47C167.221 491.115 169.766 488.486 173.009 486.585C176.309 484.683 180.112 483.733 184.418 483.733C188.613 483.733 192.276 484.627 195.408 486.417C198.54 488.207 201 490.667 202.79 493.799C204.58 496.875 205.474 500.371 205.474 504.285C205.474 504.845 205.446 505.488 205.391 506.215C205.391 506.886 205.363 507.585 205.307 508.312H170.744V501.349H193.982C193.814 498.721 192.835 496.624 191.046 495.058C189.312 493.492 187.131 492.709 184.502 492.709C182.545 492.709 180.755 493.156 179.133 494.051C177.511 494.89 176.225 496.204 175.274 497.994C174.324 499.727 173.848 501.936 173.848 504.621V507.054C173.848 509.347 174.296 511.332 175.191 513.01C176.085 514.632 177.316 515.89 178.882 516.785C180.503 517.68 182.321 518.127 184.334 518.127C186.404 518.127 188.137 517.68 189.536 516.785C190.934 515.834 191.996 514.632 192.723 513.178H204.216C203.433 515.806 202.119 518.211 200.273 520.392C198.428 522.517 196.163 524.223 193.478 525.509C190.794 526.74 187.774 527.355 184.418 527.355Z" fill="#E0DDD6"/>
<path d="M665.475 172.969C661.511 179.448 653.068 182.598 640.673 182.337C628.331 182.077 612.386 178.431 593.903 171.741C556.952 158.364 510.102 132.905 462.135 98.516C414.168 64.1268 374.232 27.3666 348.437 -4.24152C335.534 -20.0521 326.212 -34.5219 321.175 -46.7208C316.116 -58.9727 315.502 -68.6172 319.466 -75.096C323.43 -81.5748 331.873 -84.7256 344.268 -84.4642C356.61 -84.204 372.555 -80.5588 391.038 -73.8679C427.989 -60.4917 474.839 -35.0324 522.806 -0.643245C570.773 33.7459 610.709 70.5061 636.504 102.114C649.407 117.925 658.729 132.395 663.766 144.594C668.825 156.845 669.44 166.49 665.475 172.969Z" stroke="#2463EB" stroke-width="2.23704"/>
<path d="M725.97 213.032C722.006 219.51 713.563 222.661 701.167 222.4C688.826 222.14 672.88 218.494 654.398 211.804C617.447 198.427 570.597 172.968 522.63 138.579C474.662 104.19 434.727 67.4295 408.931 35.8214C396.028 20.0109 386.706 5.54107 381.669 -6.65791C376.611 -18.9098 375.996 -28.5543 379.96 -35.0331C383.924 -41.5119 392.368 -44.6627 404.763 -44.4013C417.105 -44.141 433.05 -40.4959 451.533 -33.805C488.483 -20.4288 535.334 5.03058 583.301 39.4197C631.268 73.8088 671.204 110.569 696.999 142.177C709.902 157.988 719.224 172.457 724.261 184.656C729.32 196.908 729.934 206.553 725.97 213.032Z" stroke="#2463EB" stroke-width="2.23704"/>
<path d="M707.585 243.078C703.621 249.557 695.177 252.708 682.782 252.447C670.441 252.186 654.495 248.541 636.012 241.85C599.062 228.474 552.212 203.015 504.244 168.626C456.277 134.237 416.341 97.4763 390.546 65.8682C377.643 50.0576 368.321 35.5878 363.284 23.3888C358.225 11.137 357.611 1.49246 361.575 -4.98634C365.539 -11.4651 373.983 -14.6159 386.378 -14.3546C398.719 -14.0943 414.665 -10.4491 433.148 -3.75826C470.098 9.61799 516.948 35.0773 564.916 69.4664C612.883 103.856 652.818 140.616 678.614 172.224C691.517 188.034 700.839 202.504 705.876 214.703C710.934 226.955 711.549 236.6 707.585 243.078Z" stroke="#2463EB" stroke-width="2.23704"/>
<rect x="50.3335" y="42.5037" width="76.6185" height="76.6185" fill="#2463EB"/>
<rect x="126.952" y="119.122" width="76.6185" height="76.6185" fill="#2463EB"/>
<path d="M744.133 540.244C744.133 519.093 739.967 498.148 731.873 478.607C723.779 459.065 711.914 441.309 696.958 426.353C682.002 411.397 664.246 399.533 644.704 391.438C625.163 383.344 604.218 379.178 583.067 379.178C561.915 379.178 540.971 383.344 521.429 391.438C501.888 399.533 484.132 411.397 469.175 426.353C454.219 441.31 442.355 459.065 434.26 478.607C426.166 498.148 422 519.093 422 540.244L583.067 540.244H744.133Z" fill="#2463EB"/>
</g>
<defs>
<clipPath id="clip0_111_136">
<rect width="518" height="604" fill="white"/>
</clipPath>
</defs>
</svg>