<svg width="200" height="50" viewBox="0 0 343 102" fill="none" xmlns="http://www.w3.org/2000/svg">
<g clip-path="url(#clip0_208_57)">
<path d="M28.2156 47.4261C29.9627 40.906 36.6648 34.204 43.1849 32.4566L83.834 21.5632C90.354 19.8158 94.2232 23.685 92.4758 30.2049L81.5824 70.8541C79.835 77.3742 73.133 84.0762 66.6128 85.8234L25.9637 96.717C19.4437 98.4644 15.5747 94.5952 17.322 88.0751L28.2156 47.4261Z" fill="#2463EB" fill-opacity="0.5"/>
<path d="M11.9191 31.1296C13.6664 24.6097 20.3685 17.9076 26.8886 16.1603L67.5375 5.26678C74.0577 3.51948 77.9269 7.38855 76.1795 13.9086L65.2859 54.5578C63.5387 61.0777 56.8367 67.7797 50.3165 69.5271L9.66742 80.4207C3.14735 82.1679 -0.721739 78.2989 1.02557 71.7788L11.9191 31.1296Z" fill="#2463EB"/>
<path d="M111.154 67V33.5H123.74C126.452 33.5 128.685 33.9626 130.44 34.8879C132.227 35.7812 133.551 37.0095 134.412 38.5729C135.305 40.1362 135.752 41.9069 135.752 43.885C135.752 45.7036 135.321 47.3945 134.46 48.9579C133.63 50.5212 132.322 51.7974 130.536 52.7864C128.781 53.7436 126.516 54.2221 123.74 54.2221H117.614V67H111.154ZM117.614 49.0057H123.357C125.399 49.0057 126.867 48.5431 127.76 47.6179C128.685 46.6926 129.148 45.4483 129.148 43.885C129.148 42.2579 128.685 40.9976 127.76 40.1043C126.867 39.211 125.399 38.7643 123.357 38.7643H117.614V49.0057ZM138.628 67V43.2629H144.132L144.706 48.4793H144.898C145.6 46.7883 146.365 45.544 147.195 44.7464C148.024 43.9169 148.966 43.3745 150.018 43.1193C151.103 42.8321 152.316 42.6886 153.656 42.6886V49.5321H151.885C150.8 49.5321 149.827 49.6598 148.966 49.915C148.136 50.1383 147.434 50.5212 146.86 51.0636C146.286 51.574 145.839 52.26 145.52 53.1214C145.233 53.9829 145.089 55.0198 145.089 56.2321V67H138.628ZM167.13 67.5743C164.706 67.5743 162.552 67.0638 160.67 66.0429C158.819 65.0219 157.367 63.5862 156.315 61.7357C155.262 59.8852 154.735 57.7636 154.735 55.3707C154.735 52.8821 155.246 50.6967 156.267 48.8143C157.32 46.9 158.771 45.4005 160.622 44.3157C162.504 43.231 164.674 42.6886 167.13 42.6886C169.523 42.6886 171.613 43.199 173.4 44.22C175.186 45.241 176.59 46.6448 177.611 48.4314C178.632 50.1862 179.142 52.1802 179.142 54.4136C179.142 54.7326 179.127 55.0995 179.095 55.5143C179.095 55.8971 179.079 56.296 179.047 56.7107H159.33V52.7386H172.586C172.49 51.239 171.932 50.0426 170.911 49.1493C169.922 48.256 168.678 47.8093 167.178 47.8093C166.062 47.8093 165.041 48.0645 164.115 48.575C163.19 49.0536 162.456 49.8033 161.914 50.8243C161.372 51.8133 161.1 53.0736 161.1 54.605V55.9929C161.1 57.301 161.356 58.4336 161.866 59.3907C162.377 60.316 163.078 61.0338 163.972 61.5443C164.897 62.0548 165.934 62.31 167.082 62.31C168.263 62.31 169.252 62.0548 170.05 61.5443C170.847 61.0019 171.453 60.316 171.868 59.4864H178.425C177.978 60.986 177.228 62.3579 176.175 63.6021C175.122 64.8145 173.83 65.7876 172.299 66.5214C170.767 67.2233 169.045 67.5743 167.13 67.5743ZM191.953 67.5743C189.848 67.5743 187.981 67.2233 186.354 66.5214C184.759 65.8195 183.467 64.8624 182.478 63.65C181.52 62.4057 180.962 61.0019 180.803 59.4386H187.263C187.391 60.0129 187.646 60.5552 188.029 61.0657C188.412 61.5762 188.922 61.991 189.56 62.31C190.23 62.5971 190.996 62.7407 191.858 62.7407C192.751 62.7407 193.469 62.629 194.011 62.4057C194.553 62.1505 194.952 61.8314 195.208 61.4486C195.495 61.0657 195.638 60.651 195.638 60.2043C195.638 59.5981 195.431 59.1355 195.016 58.8164C194.633 58.4655 194.059 58.1624 193.293 57.9071C192.559 57.6519 191.682 57.3807 190.661 57.0936C189.608 56.8064 188.539 56.5033 187.455 56.1843C186.402 55.8652 185.429 55.4664 184.535 54.9879C183.642 54.4774 182.924 53.8393 182.382 53.0736C181.871 52.276 181.616 51.2869 181.616 50.1064C181.616 48.7345 181.999 47.4902 182.765 46.3736C183.53 45.2569 184.631 44.3636 186.067 43.6936C187.534 43.0236 189.273 42.6886 191.283 42.6886C194.155 42.6886 196.436 43.3426 198.127 44.6507C199.85 45.9588 200.855 47.7614 201.142 50.0586H195.064C194.904 49.261 194.49 48.6388 193.82 48.1921C193.182 47.7455 192.336 47.5221 191.283 47.5221C190.167 47.5221 189.305 47.7455 188.699 48.1921C188.125 48.6069 187.838 49.1174 187.838 49.7236C187.838 50.1702 188.029 50.5531 188.412 50.8721C188.795 51.1593 189.353 51.4305 190.087 51.6857C190.853 51.909 191.762 52.1643 192.815 52.4514C194.506 52.8981 196.053 53.3767 197.457 53.8871C198.861 54.3976 199.977 55.0995 200.807 55.9929C201.636 56.8543 202.051 58.0826 202.051 59.6779C202.083 61.2093 201.684 62.5652 200.855 63.7457C200.025 64.9262 198.861 65.8674 197.361 66.5693C195.862 67.2393 194.059 67.5743 191.953 67.5743ZM216.577 67.5743C214.152 67.5743 211.998 67.0638 210.116 66.0429C208.265 65.0219 206.814 63.5862 205.761 61.7357C204.708 59.8852 204.182 57.7636 204.182 55.3707C204.182 52.8821 204.692 50.6967 205.713 48.8143C206.766 46.9 208.217 45.4005 210.068 44.3157C211.95 43.231 214.12 42.6886 216.577 42.6886C218.969 42.6886 221.059 43.199 222.846 44.22C224.632 45.241 226.036 46.6448 227.057 48.4314C228.078 50.1862 228.589 52.1802 228.589 54.4136C228.589 54.7326 228.573 55.0995 228.541 55.5143C228.541 55.8971 228.525 56.296 228.493 56.7107H208.776V52.7386H222.032C221.937 51.239 221.378 50.0426 220.357 49.1493C219.368 48.256 218.124 47.8093 216.624 47.8093C215.508 47.8093 214.487 48.0645 213.562 48.575C212.636 49.0536 211.902 49.8033 211.36 50.8243C210.818 51.8133 210.547 53.0736 210.547 54.605V55.9929C210.547 57.301 210.802 58.4336 211.312 59.3907C211.823 60.316 212.525 61.0338 213.418 61.5443C214.343 62.0548 215.38 62.31 216.529 62.31C217.709 62.31 218.698 62.0548 219.496 61.5443C220.293 61.0019 220.9 60.316 221.314 59.4864H227.871C227.424 60.986 226.674 62.3579 225.622 63.6021C224.569 64.8145 223.277 65.7876 221.745 66.5214C220.214 67.2233 218.491 67.5743 216.577 67.5743ZM231.445 67V43.2629H236.949L237.523 47.1393H237.714C238.48 45.7355 239.517 44.6507 240.825 43.885C242.133 43.0874 243.776 42.6886 245.754 42.6886C247.732 42.6886 249.407 43.1193 250.779 43.9807C252.151 44.8102 253.188 46.0386 253.89 47.6657C254.624 49.2929 254.991 51.3029 254.991 53.6957V67H248.53V54.27C248.53 52.2919 248.131 50.7764 247.334 49.7236C246.536 48.6707 245.276 48.1443 243.553 48.1443C242.468 48.1443 241.495 48.4155 240.634 48.9579C239.772 49.4683 239.102 50.2181 238.624 51.2071C238.145 52.1643 237.906 53.3448 237.906 54.7486V67H231.445ZM269.414 67C267.723 67 266.24 66.7448 264.963 66.2343C263.719 65.6919 262.746 64.8145 262.044 63.6021C261.342 62.3579 260.991 60.6669 260.991 58.5293V48.4314H256.923V43.2629H260.991L261.709 36.8021H267.452V43.2629H273.769V48.4314H267.452V58.625C267.452 59.7736 267.691 60.5712 268.17 61.0179C268.648 61.4326 269.462 61.64 270.611 61.64H273.626V67H269.414ZM275.937 67V43.2629H281.441L282.015 48.4793H282.207C282.909 46.7883 283.674 45.544 284.504 44.7464C285.333 43.9169 286.274 43.3745 287.327 43.1193C288.412 42.8321 289.624 42.6886 290.964 42.6886V49.5321H289.194C288.109 49.5321 287.136 49.6598 286.274 49.915C285.445 50.1383 284.743 50.5212 284.169 51.0636C283.594 51.574 283.148 52.26 282.829 53.1214C282.542 53.9829 282.398 55.0198 282.398 56.2321V67H275.937ZM301.042 67L311.666 33.5H322.242L332.819 67H325.975L317.074 37.2807H316.882L307.79 67H301.042ZM306.45 57.3807L308.125 52.3557H325.21L326.885 57.3807H306.45ZM334.83 67V33.5H341.29V67H334.83Z" fill="black"/>
</g>
<defs>
<clipPath id="clip0_208_57">
<rect width="343" height="102" fill="white"/>
</clipPath>
</defs>
</svg>